<svg width="32" height="32" viewBox="0 0 32 32" fill="none" xmlns="http://www.w3.org/2000/svg">
  <path d="M16 28.6667C23.0376 28.6667 28.6667 23.0376 28.6667 16C28.6667 8.96243 23.0376 3.33334 16 3.33334C8.96243 3.33334 3.33334 8.96243 3.33334 16C3.33334 23.0376 8.96243 28.6667 16 28.6667Z" fill="#5B34EC"/>
  <path d="M16 25.3333C21.1546 25.3333 25.3333 21.1546 25.3333 16C25.3333 10.8454 21.1546 6.66667 16 6.66667C10.8454 6.66667 6.66667 10.8454 6.66667 16C6.66667 21.1546 10.8454 25.3333 16 25.3333Z" fill="white"/>
  <path d="M16 22C19.3137 22 22 19.3137 22 16C22 12.6863 19.3137 10 16 10C12.6863 10 10 12.6863 10 16C10 19.3137 12.6863 22 16 22Z" fill="#5B34EC"/>
</svg> 